<svg width="1200" height="700" viewBox="0 0 1200 700" xmlns="http://www.w3.org/2000/svg">
  <defs>
    <linearGradient id="bg2" x1="0" y1="0" x2="1" y2="1">
      <stop offset="0%" stop-color="#09090b"/>
      <stop offset="100%" stop-color="#111827"/>
    </linearGradient>
    <linearGradient id="bar" x1="0" y1="1" x2="0" y2="0">
      <stop offset="0%" stop-color="#0ea5e9"/>
      <stop offset="100%" stop-color="#f97316"/>
    </linearGradient>
  </defs>
  <rect width="1200" height="700" fill="url(#bg2)"/>
  <g opacity="0.35" stroke="#334155" stroke-width="1">
    <path d="M0 100 H1200"/><path d="M0 200 H1200"/><path d="M0 300 H1200"/><path d="M0 400 H1200"/><path d="M0 500 H1200"/><path d="M0 600 H1200"/>
  </g>
  <g>
    <rect x="120" y="420" width="40" height="180" fill="url(#bar)"/>
    <rect x="190" y="350" width="40" height="250" fill="url(#bar)"/>
    <rect x="260" y="390" width="40" height="210" fill="url(#bar)"/>
    <rect x="330" y="290" width="40" height="310" fill="url(#bar)"/>
    <rect x="400" y="250" width="40" height="350" fill="url(#bar)"/>
    <rect x="470" y="315" width="40" height="285" fill="url(#bar)"/>
    <rect x="540" y="230" width="40" height="370" fill="url(#bar)"/>
    <rect x="610" y="280" width="40" height="320" fill="url(#bar)"/>
    <rect x="680" y="215" width="40" height="385" fill="url(#bar)"/>
    <rect x="750" y="255" width="40" height="345" fill="url(#bar)"/>
    <rect x="820" y="180" width="40" height="420" fill="url(#bar)"/>
    <rect x="890" y="225" width="40" height="375" fill="url(#bar)"/>
    <rect x="960" y="160" width="40" height="440" fill="url(#bar)"/>
  </g>
  <text x="70" y="90" fill="#cbd5e1" font-size="40" font-family="Arial, sans-serif">Threat Telemetry</text>
</svg>
